<svg t="1760838573968" class="icon" viewBox="0 0 1170 1024" version="1.1" xmlns="http://www.w3.org/2000/svg" p-id="3193" width="100" height="100"><path d="M9.142857 0h1024v1024H9.142857z" fill="#ffffff" fill-opacity="0" p-id="3194"></path><path d="M393.142857 768h256v-64H393.142857v64z" fill="#ffffff" p-id="3195"></path><path d="M539.318857 101.696l4.48 3.648 416 416-45.312 45.312L841.142857 493.248V864a64 64 0 0 1-64 64H265.142857a64 64 0 0 1-64-64V493.248L127.798857 566.656l-45.312-45.312 416-416A32 32 0 0 1 539.318857 101.76zM521.142857 173.248l-256 256V864h512V429.248l-256-256z" fill="#ffffff" p-id="3196"></path></svg> 